<svg width="34" height="34" viewBox="0 0 34 34" fill="none" xmlns="http://www.w3.org/2000/svg">
<path d="M7.09076 5.71722H26.9286C28.0823 5.71722 29.189 6.17594 30.0048 6.99164C30.8206 7.80745 31.2792 8.91408 31.2792 10.0678V23.6411C31.2792 24.7949 30.8207 25.9014 30.0048 26.7172C29.189 27.5331 28.0825 27.9916 26.9286 27.9916H7.09076C5.93703 27.9916 4.8304 27.533 4.01459 26.7172C3.1989 25.9014 2.74017 24.7947 2.74017 23.6411V10.0678C2.74023 8.91408 3.19878 7.80745 4.01459 6.99164C4.8304 6.17583 5.93703 5.71728 7.09076 5.71722ZM4.13275 23.6411C4.13275 24.4255 4.44435 25.1781 4.99896 25.7328C5.5537 26.2876 6.30625 26.6 7.09076 26.6H26.9286C27.7132 26.6 28.4657 26.2876 29.0204 25.7328C29.5752 25.1781 29.8876 24.4256 29.8876 23.6411V13.3745H4.13275V23.6411ZM22.2304 20.3354H25.3632C25.5477 20.3355 25.725 20.4081 25.8554 20.5385C25.9858 20.6689 26.0584 20.8462 26.0585 21.0307C26.0585 21.2151 25.9857 21.3924 25.8554 21.5229C25.725 21.6533 25.5477 21.7269 25.3632 21.727H22.2304C22.0458 21.727 21.8687 21.6534 21.7382 21.5229C21.6078 21.3924 21.5341 21.2152 21.5341 21.0307C21.5342 20.8462 21.6078 20.6689 21.7382 20.5385C21.8687 20.4081 22.0459 20.3354 22.2304 20.3354ZM7.09076 7.1098C6.30625 7.10986 5.5537 7.42128 4.99896 7.97601C4.44423 8.53075 4.13281 9.2833 4.13275 10.0678V11.9819H29.8876V10.0678C29.8876 9.2833 29.5752 8.53075 29.0204 7.97601C28.4657 7.42139 27.7131 7.1098 26.9286 7.1098H7.09076Z" fill="#4CAF4F" stroke="#4CAF4F" stroke-width="0.696069"/>
</svg>
