<?xml version="1.0" encoding="UTF-8"?>
<svg version="1.1" xmlns="http://www.w3.org/2000/svg" width="68" height="77">
<path d="M0 0 C22.44 0 44.88 0 68 0 C68 25.41 68 50.82 68 77 C45.56 77 23.12 77 0 77 C0 51.59 0 26.18 0 0 Z " fill="#223238" transform="translate(0,0)"/>
<path d="M0 0 C4.06124391 1.35374797 4.60315649 3.26258828 6.6875 6.9375 C7.31011719 8.01902344 7.93273438 9.10054687 8.57421875 10.21484375 C10 13 10 13 10 15 C4.06 15 -1.88 15 -8 15 C-6.47489648 11.18724121 -4.99242873 8.13982945 -2.875 4.6875 C-2.33617187 3.80449219 -1.79734375 2.92148437 -1.2421875 2.01171875 C-0.83226562 1.34785156 -0.42234375 0.68398438 0 0 Z " fill="#6F797D" transform="translate(50,25)"/>
<path d="M0 0 C5.94 0 11.88 0 18 0 C12.71428571 10.71428571 12.71428571 10.71428571 10 15 C5.93875609 13.64625203 5.39684351 11.73741172 3.3125 8.0625 C2.68988281 6.98097656 2.06726563 5.89945313 1.42578125 4.78515625 C0 2 0 2 0 0 Z " fill="#6D777B" transform="translate(22,41)"/>
<path d="M0 0 C0.66 0 1.32 0 2 0 C3.7265625 2.5546875 3.7265625 2.5546875 5.625 5.875 C6.25664063 6.96554688 6.88828125 8.05609375 7.5390625 9.1796875 C9 12 9 12 9 14 C3.72 14 -1.56 14 -7 14 C-5.58843021 10.47107553 -4.22615467 7.45137797 -2.375 4.1875 C-1.92898437 3.39730469 -1.48296875 2.60710938 -1.0234375 1.79296875 C-0.68570313 1.20128906 -0.34796875 0.60960937 0 0 Z " fill="#00B952" transform="translate(40,43)"/>
<path d="M0 0 C5.28 0 10.56 0 16 0 C14.58843021 3.52892447 13.22615467 6.54862203 11.375 9.8125 C10.92898437 10.60269531 10.48296875 11.39289062 10.0234375 12.20703125 C9.68570313 12.79871094 9.34796875 13.39039063 9 14 C8.34 14 7.68 14 7 14 C5.2734375 11.4453125 5.2734375 11.4453125 3.375 8.125 C2.74335937 7.03445312 2.11171875 5.94390625 1.4609375 4.8203125 C0 2 0 2 0 0 Z " fill="#00B250" transform="translate(43,41)"/>
<path d="M0 0 C5.28 0 10.56 0 16 0 C9.97321429 11.38392857 9.97321429 11.38392857 7 14 C5.82807953 12.04480616 4.6626071 10.0857461 3.5 8.125 C2.8503125 7.03445312 2.200625 5.94390625 1.53125 4.8203125 C0 2 0 2 0 0 Z " fill="#00B752" transform="translate(13,24)"/>
<path d="M0 0 C0.66 0 1.32 0 2 0 C3.5078125 2.08203125 3.5078125 2.08203125 5.125 4.8125 C5.66382813 5.70582031 6.20265625 6.59914063 6.7578125 7.51953125 C8 10 8 10 8 13 C3.05 13 -1.9 13 -7 13 C-1.125 1.125 -1.125 1.125 0 0 Z " fill="#00BA52" transform="translate(30,26)"/>
</svg>
